<?xml version="1.0" encoding="UTF-8" standalone="no" ?>
<!DOCTYPE svg PUBLIC "-//W3C//DTD SVG 1.1//EN" "http://www.w3.org/Graphics/SVG/1.1/DTD/svg11.dtd">
<svg xmlns="http://www.w3.org/2000/svg" xmlns:xlink="http://www.w3.org/1999/xlink" version="1.1" width="64" height="64" viewBox="0 0 64 64" xml:space="preserve">
<desc>Created with Fabric.js 4.6.0</desc>
<defs>
</defs>
<g transform="matrix(1 0 0 1 31.94 32)" id="ijTLNNNi_jYcqM7A8zM_r"  >
<path style="stroke: rgb(24,88,197); stroke-width: 0; stroke-dasharray: none; stroke-linecap: butt; stroke-dashoffset: 0; stroke-linejoin: miter; stroke-miterlimit: 4; fill: rgb(0,0,0); fill-rule: nonzero; opacity: 1;" vector-effect="non-scaling-stroke"  transform=" translate(0, 0)" d="M -32 -20.06359 C -32 -26.655880000000003 -26.65589 -32 -20.063589999999998 -32 L 20.063590000000005 -32 L 20.063590000000005 -32 C 26.655880000000003 -32 32.00000000000001 -26.65589 32.00000000000001 -20.063589999999998 L 32.00000000000001 20.063590000000005 L 32.00000000000001 20.063590000000005 C 32.00000000000001 26.655880000000003 26.655890000000007 32.00000000000001 20.063590000000005 32.00000000000001 L -20.063589999999998 32.00000000000001 L -20.063589999999998 32.00000000000001 C -26.655879999999996 32.00000000000001 -32 26.655890000000007 -32 20.063590000000005 z" stroke-linecap="round" />
</g>
<g transform="matrix(1 0 0 1 31.94 32)" id="yJVTBYJkttyHqhECIw5nO"  >
<path style="stroke: rgb(24,88,197); stroke-width: 0; stroke-dasharray: none; stroke-linecap: butt; stroke-dashoffset: 0; stroke-linejoin: miter; stroke-miterlimit: 4; fill: rgb(0,0,0); fill-rule: nonzero; opacity: 1;" vector-effect="non-scaling-stroke"  transform=" translate(0, 0)" d="M -32 -20.06359 C -32 -26.655880000000003 -26.65589 -32 -20.063589999999998 -32 L 20.063590000000005 -32 L 20.063590000000005 -32 C 26.655880000000003 -32 32.00000000000001 -26.65589 32.00000000000001 -20.063589999999998 L 32.00000000000001 20.063590000000005 L 32.00000000000001 20.063590000000005 C 32.00000000000001 26.655880000000003 26.655890000000007 32.00000000000001 20.063590000000005 32.00000000000001 L -20.063589999999998 32.00000000000001 L -20.063589999999998 32.00000000000001 C -26.655879999999996 32.00000000000001 -32 26.655890000000007 -32 20.063590000000005 z" stroke-linecap="round" />
</g>
<g transform="matrix(0.04 -0.01 0.01 0.04 28.73 12.89)" id="kEoZjF-NRIrlWznucopAl" clip-path="url(#CLIPPATH_25)"  >
<clipPath id="CLIPPATH_25" >
	<path transform="matrix(1 0 0 1 0.02 0.03) translate(-600.02, -132)" id="a" d="M 55.824 0 L 1144.2240000000002 0 L 1144.2240000000002 264 L 55.82400000000007 264 z" stroke-linecap="round" />
</clipPath>
<path style="stroke: none; stroke-width: 0; stroke-dasharray: none; stroke-linecap: butt; stroke-dashoffset: 0; stroke-linejoin: miter; stroke-miterlimit: 4; fill: rgb(255,255,255); fill-rule: nonzero; opacity: 1;" vector-effect="non-scaling-stroke"  transform=" translate(-600, -131.97)" d="M 100.85 0 L 1099.1499999999999 0 C 1124.002 0 1144.177 20.176 1144.177 45.027 L 1144.177 218.90699999999998 C 1144.177 243.759 1124.001 263.938 1099.1499999999999 263.938 L 100.84999999999991 263.938 C 75.9979999999999 263.938 55.82299999999991 243.75799999999998 55.82299999999991 218.90699999999998 L 55.82299999999991 45.02699999999999 C 55.82299999999991 20.174999999999986 75.99899999999991 -1.4210854715202004e-14 100.84999999999991 -1.4210854715202004e-14 z" stroke-linecap="round" />
</g>
<g transform="matrix(0.04 -0.01 0.01 0.04 35.82 40.2)" id="7sFOCCR8lpZ5Fxvif0YqG"  >
<path style="stroke: none; stroke-width: 0; stroke-dasharray: none; stroke-linecap: butt; stroke-dashoffset: 0; stroke-linejoin: miter; stroke-miterlimit: 4; fill: rgb(255,255,255); fill-rule: evenodd; opacity: 1;" vector-effect="non-scaling-stroke"  transform=" translate(-600, -755.63)" d="M 394.85 577.89 C 394.85 534.9449999999999 429.713 500.07 472.66200000000003 500.07 C 515.6070000000001 500.07 550.482 534.9449999999999 550.482 577.89 C 550.482 620.8389999999999 515.607 655.7139999999999 472.662 655.7139999999999 C 429.71299999999997 655.7139999999999 394.84999999999997 620.8389999999999 394.84999999999997 577.89 z M 554.83 828.21 C 554.83 785.2610000000001 589.705 750.3860000000001 632.654 750.3860000000001 C 675.599 750.3860000000001 710.463 785.2610000000001 710.463 828.21 C 710.463 871.1550000000001 675.5999999999999 906.03 632.654 906.03 C 589.705 906.03 554.83 871.155 554.83 828.21 z M 153.33000000000004 311.26 L 345.55000000000007 718.9300000000001 L 552.8900000000001 1158.63 C 578.8900000000001 1213.778 621.1090000000002 1213.778 647.1090000000002 1158.63 L 854.4490000000002 718.9300000000001 L 1046.669 311.26000000000005 z M 665.3000000000001 483.2 C 665.3000000000001 440.251 700.163 405.388 743.1120000000001 405.388 C 786.0610000000001 405.388 820.936 440.251 820.936 483.2 C 820.936 526.145 786.061 561.02 743.1120000000001 561.02 C 700.1630000000001 561.02 665.3000000000001 526.145 665.3000000000001 483.2 z" stroke-linecap="round" />
</g>
</svg>